<svg xmlns="http://www.w3.org/2000/svg" viewBox="0 0 512 512" role="img" aria-label="Dr PDF PRO icon">
  <defs>
    <linearGradient id="bg" x1="0" y1="0" x2="1" y2="1">
      <stop offset="0%" stop-color="#0f172a"/>
      <stop offset="100%" stop-color="#1d4ed8"/>
    </linearGradient>
  </defs>
  <rect x="32" y="32" width="448" height="448" rx="112" fill="url(#bg)"/>
  <path d="M164 128h160l64 64v184c0 22.1-17.9 40-40 40H164c-22.1 0-40-17.9-40-40V168c0-22.1 17.9-40 40-40z" fill="#ffffff" opacity="0.98"/>
  <path d="M324 128v64h64" fill="#bfdbfe"/>
  <rect x="190" y="226" width="144" height="20" rx="10" fill="#1e3a8a"/>
  <rect x="190" y="266" width="112" height="20" rx="10" fill="#1e3a8a"/>
  <path d="M300 338l72-72 30 30-72 72-42 10z" fill="#f59e0b"/>
  <path d="M370 258l16-16c8-8 20-8 28 0l10 10c8 8 8 20 0 28l-16 16z" fill="#fbbf24"/>
</svg>
