<svg xmlns="http://www.w3.org/2000/svg" viewBox="0 0 64 64" role="img" aria-label="Dr PDF PRO favicon">
  <defs>
    <linearGradient id="bg" x1="0" y1="0" x2="1" y2="1">
      <stop offset="0%" stop-color="#0f172a"/>
      <stop offset="100%" stop-color="#1d4ed8"/>
    </linearGradient>
  </defs>
  <rect x="4" y="4" width="56" height="56" rx="14" fill="url(#bg)"/>
  <path d="M20 16h20l8 8v24a4 4 0 0 1-4 4H20a4 4 0 0 1-4-4V20a4 4 0 0 1 4-4z" fill="#ffffff" opacity="0.96"/>
  <path d="M40 16v8h8" fill="#bfdbfe"/>
  <rect x="23" y="28" width="18" height="3" rx="1.5" fill="#1e3a8a"/>
  <rect x="23" y="34" width="14" height="3" rx="1.5" fill="#1e3a8a"/>
  <path d="M38 40l9-9 4 4-9 9-5 1z" fill="#f59e0b"/>
  <path d="M46 30l2-2a2 2 0 0 1 3 0l1 1a2 2 0 0 1 0 3l-2 2z" fill="#fbbf24"/>
</svg>
